<svg xmlns="http://www.w3.org/2000/svg" viewBox="0 0 373.63 113.9" xmlns:v="https://vecta.io/nano"><path d="M30.1 108.7a37.49 37.49 0 0 1-16.1-3.5 30.91 30.91 0 0 1-12.16-10A9.62 9.62 0 0 1 0 89.86a8.15 8.15 0 0 1 3-6.38 9 9 0 0 1 5.86-2.59 8.42 8.42 0 0 1 4.48 1.37 22.63 22.63 0 0 1 4 3.19 19.61 19.61 0 0 0 6 3.88 19.8 19.8 0 0 0 8.21 1.1 14 14 0 0 0 4.6-1A18.83 18.83 0 0 0 45 82.11a15 15 0 0 0 2.43-8.21V10.06a8.64 8.64 0 0 1 2.89-6.61A9.61 9.61 0 0 1 57 .79a9 9 0 0 1 9.42 9.27V73.7a32.52 32.52 0 0 1-3.9 15.74 37.64 37.64 0 0 1-14 14.42 35.42 35.42 0 0 1-18.42 4.86zM250.37 1.62q14.4 0 21.45 6.75 7.05 6.75 7.05 20a22.27 22.27 0 0 1-3.45 12.38 22.29 22.29 0 0 1-10.2 8.25q-6.75 2.92-16.65 2.92l.6-6.75a52 52 0 0 1 10.65 1.28 40 40 0 0 1 11.63 4.5 26.66 26.66 0 0 1 9.3 9q3.67 5.77 3.67 14.77 0 9.9-3.22 16.2a25 25 0 0 1-8.48 9.75 32.72 32.72 0 0 1-11.25 4.73 55.53 55.53 0 0 1-11.55 1.27h-37.35a9 9 0 0 1-9.15-9.15V10.77a9 9 0 0 1 9.15-9.15zm-3.62 18H220.5l1.9-2.36V44l-1.77-1.33h26.54a11.71 11.71 0 0 0 7.67-2.8q3.4-2.8 3.4-8.1 0-6.34-3.17-9.22a11.94 11.94 0 0 0-8.33-2.92zm1.67 41h-27.35l1.35-1.2v31.7l-1.5-1.5h28.55q6.9 0 11-3.68 4.1-3.68 4.06-11 0-6.75-2.7-9.76a11.6 11.6 0 0 0-6.46-3.76 35.48 35.48 0 0 0-6.94-.8zM335.08 108a63.58 63.58 0 0 1-18.9-2.62 45.29 45.29 0 0 1-16.05-9.23 11.84 11.84 0 0 1-3-3.75 9.32 9.32 0 0 1-1.05-4.2 8.57 8.57 0 0 1 2.47-6.07 8.21 8.21 0 0 1 6.23-2.63 8 8 0 0 1 5.1 1.8 47.68 47.68 0 0 0 11.32 7 35.42 35.42 0 0 0 13.88 2.4 29.12 29.12 0 0 0 10.2-1.7 20 20 0 0 0 7.5-4.65 9.33 9.33 0 0 0 2.85-6.68 11.35 11.35 0 0 0-2.7-7.65 20.5 20.5 0 0 0-8.25-5.32 63.47 63.47 0 0 0-14.1-3.38 62.41 62.41 0 0 1-14.25-3.68 33.1 33.1 0 0 1-10.28-6.29 24.9 24.9 0 0 1-6.22-9 30.73 30.73 0 0 1-2.1-11.63 27.51 27.51 0 0 1 5-16.65 31.49 31.49 0 0 1 13.6-10.47 48.23 48.23 0 0 1 18.9-3.6 54.39 54.39 0 0 1 18.07 2.92 42.31 42.31 0 0 1 13.58 7.43q4.35 3.45 4.35 8a8.55 8.55 0 0 1-2.55 6 8 8 0 0 1-6 2.7 6.58 6.58 0 0 1-4.05-1.35 27.41 27.41 0 0 0-6.45-4 60.2 60.2 0 0 0-8.55-3.15 32.57 32.57 0 0 0-19.28.38 14.85 14.85 0 0 0-6.67 4.5 10.35 10.35 0 0 0-2.25 6.6 10.66 10.66 0 0 0 2.62 7.42 17.76 17.76 0 0 0 7.58 4.66 87.57 87.57 0 0 0 11.85 3.07 120 120 0 0 1 15.82 3.9 37 37 0 0 1 11.33 5.78 21.9 21.9 0 0 1 6.75 8.84 33.39 33.39 0 0 1 2.25 13 26.82 26.82 0 0 1-5.4 16.8 34.59 34.59 0 0 1-14.18 10.8 47.75 47.75 0 0 1-18.97 3.7z" fill="#3f51b5"/><path d="M191.33 100.5L176.9 85.2a55.19 55.19 0 0 0 5.18-10.2 58 58 0 0 0 3.75-21 58 58 0 0 0-3.75-21 53.34 53.34 0 0 0-10.57-17.17 48.93 48.93 0 0 0-16.2-11.63A49.53 49.53 0 0 0 134.83 0a48.6 48.6 0 0 0-36.52 15.83A53.36 53.36 0 0 0 87.73 33 58 58 0 0 0 84 54a58 58 0 0 0 3.75 21 53.36 53.36 0 0 0 10.56 17.17A48.6 48.6 0 0 0 134.83 108a49.53 49.53 0 0 0 20.48-4.2 50.37 50.37 0 0 0 8.68-5l13.7 14.53q1 1.06 3.54 0a19.25 19.25 0 0 0 5.58-3.91 20.27 20.27 0 0 0 4.13-5.25q1.4-2.6.4-3.67zM134.83 90a28.35 28.35 0 0 1-16.35-4.8 32.54 32.54 0 0 1-11-13 41.15 41.15 0 0 1-4-18.23 41 41 0 0 1 4-18.3 32.67 32.67 0 0 1 11-12.9 30.25 30.25 0 0 1 32.7 0 33.19 33.19 0 0 1 11.1 13A40.54 40.54 0 0 1 166.33 54a40.51 40.51 0 0 1-4.05 18.23 33.12 33.12 0 0 1-11.1 13A28.35 28.35 0 0 1 134.83 90z" fill="#ffb300"/></svg>