<svg xmlns="http://www.w3.org/2000/svg" viewBox="0 0 560 148.83" xmlns:v="https://vecta.io/nano"><path d="M66.72 3.24v109.42q0 14.66-8.8 23.8-8.8 9.13-23.9 9.13-15.84 0-24.94-9.93-9.1-9.93-9.06-27.4h8.8q0 12.86 6.07 21.08 6.07 8.22 19.13 8.23 12.52 0 18.1-7.32a28.18 28.18 0 0 0 5.58-17.57V3.24zM407.08 84a34.36 34.36 0 0 1 8.28 22.93 36.69 36.69 0 0 1-5.09 19.25 34.81 34.81 0 0 1-15.15 13.36q-10.08 4.9-24.43 4.88H326.2V4.4h43.68q20.94 0 31.6 9.68 10.67 9.68 10.67 25 0 13.37-7.18 21.64A36 36 0 0 1 386.64 72a34 34 0 0 1 20.44 12zM335.2 67.4h35.33q15.85 0 24.4-7.52 8.54-7.52 8.53-20.78 0-12.84-8.43-20.27-8.43-7.43-25.5-7.43H335.2zm61.7 60.9q9.7-8.1 9.7-22.3 0-14-9.9-22.3-9.9-8.3-27.1-8.3h-34.4v61h35q17 0 26.7-8.1zm96.45 12.55a38.85 38.85 0 0 1-15.82-12.93 36.13 36.13 0 0 1-6.46-18.11h9.35a33.81 33.81 0 0 0 10.24 19.5q8.65 8.55 26.36 8.55a40.06 40.06 0 0 0 18-3.78 28.54 28.54 0 0 0 11.84-10.34 26.47 26.47 0 0 0 4.18-14.52q0-10.16-4.88-16.12a30.24 30.24 0 0 0-12.13-9 176.54 176.54 0 0 0-19.6-6.37 156.35 156.35 0 0 1-21.78-7.16 34.48 34.48 0 0 1-13.93-11q-5.66-7.46-5.67-20.4A33.09 33.09 0 0 1 478.34 21a36.18 36.18 0 0 1 15-13 50.37 50.37 0 0 1 22.48-4.78q18.5 0 29.84 9.15Q557 21.52 559.2 34.85h-9.55a29.69 29.69 0 0 0-5.28-10.94 30.94 30.94 0 0 0-11.53-9.25A39.94 39.94 0 0 0 515 11q-13.92 0-23.47 7.66Q481.98 26.32 482 39q0 10.16 5 16.22a31.55 31.55 0 0 0 12.23 9.15 145.35 145.35 0 0 0 19.6 6.26 174.06 174.06 0 0 1 21.78 7.26 34.06 34.06 0 0 1 13.73 11Q560 96.3 560 109a34.11 34.11 0 0 1-5 17.7 37.35 37.35 0 0 1-14.62 13.63q-9.66 5.28-23.38 5.27-13.5.03-23.64-4.74z" fill="#3f51b5"/><path d="M209.61,2.94a64,64,0,0,0-35.21-.89A68.28,68.28,0,0,0,143.12,20.2a68.2,68.2,0,0,0-18.47,31.09,63.94,63.94,0,0,0,.53,35.22q5.2,17.77,19.84,32.56t32.28,20.1a63.66,63.66,0,0,0,35.28,1,67.05,67.05,0,0,0,28-15.08l23.53,23.78,6.4-6.34L247,118.72a67.08,67.08,0,0,0,15.36-27.83,63.74,63.74,0,0,0-.59-35.29Q256.46,37.77,242,23.11T209.61,2.94ZM253.45,59a55.21,55.21,0,0,1,.62,30.63,58.44,58.44,0,0,1-15.84,26.64,58.38,58.38,0,0,1-26.81,15.56,55.81,55.81,0,0,1-30.68-.86q-15.68-4.74-29.18-18.39T133.33,83.09a55.68,55.68,0,0,1-.55-30.69,58.37,58.37,0,0,1,15.83-26.65,58.46,58.46,0,0,1,26.81-15.56,55.11,55.11,0,0,1,30.61.93q15.6,4.82,29.25,18.61Q248.8,43.37,253.45,59Z" fill="#a3a8a7"/><g fill="#3f51b5"><circle cx="194.62" cy="40.88" r="16.1"/><circle cx="227.19" cy="46.8" r="10.18"/><circle cx="162.04" cy="46.8" r="10.18"/><path d="M172.07 66.12c-4-3.28-7.64-2.85-12.27-2.85a12.55 12.55 0 0 0-12.57 12.49V96a5.44 5.44 0 0 0 5.45 5.42c13 0 11.4.24 11.4-.56 0-14.34-1.7-24.86 8-34.74zM199 63.35c-8.1-.68-15.12 0-21.2 5-10.16 8.14-8.2 19.1-8.2 32.48a6.49 6.49 0 0 0 6.48 6.49c39.07 0 40.63 1.26 42.94-3.88.76-1.73.55-1.18.55-17.78 0-13.18-11.4-22.32-20.58-22.32zm30.43-.08c-4.66 0-8.27-.43-12.27 2.85 9.62 9.82 8 19.6 8 34.72 0 .8-1.3.56 11.2.56a5.63 5.63 0 0 0 5.64-5.61v-20a12.55 12.55 0 0 0-12.57-12.52z"/></g></svg>