<svg xmlns="http://www.w3.org/2000/svg" width="1081.37" height="821.13" xmlns:v="https://vecta.io/nano"><style><![CDATA[.B{opacity:.1}.C{fill:#3f51b5}.D{fill:#5a5773}.E{opacity:.7}.F{opacity:.2}.G{fill:#3acc6c}.H{fill:#a1616a}]]></style><defs><linearGradient id="A" x1="852.98" y1="854.53" x2="852.98" y2="216.11" gradientUnits="userSpaceOnUse"><stop offset="0" stop-color="gray" stop-opacity=".25"/><stop offset=".54" stop-color="gray" stop-opacity=".12"/><stop offset="1" stop-color="gray" stop-opacity=".1"/></linearGradient></defs><path d="M1002.8 583.4q-5.05 4.44-10.35 8.64l-1.8 1.43a363.56 363.56 0 0 1-39.52 26.7c-15.77 9.32-32.23 17.8-48.9 25.8a810.82 810.82 0 0 1-76.94 32.45l-1.18.43Q806.8 685 789.14 690.2l-.2.06q-12.33 3.6-24.83 6.65l-1.14.28q-18.4 4.44-37.17 7.55l-2.88.46q-13.72 2.16-27.63 3.52c-52.12 5-104.87.94-156.67-6.08-104.6-14.2-207.83-40.8-302-82.5a836.8 836.8 0 0 1-103.92-54.81q-7.08-4.4-14.07-9l-2.2-1.47C70.48 524.17 29 486.77 9.7 439.57-11.84 386.88 1.94 320.1 55.27 288.9c18.42-10.7 39.67-16.53 61.17-21.34l2.2-.5 10.9-2.34 38.1-8.35c23.5-5.53 46.57-12.13 68.08-21.82q2.38-1.06 4.74-2.2c16.83-8 35.14-19.64 49-33.62C301.4 186.7 310 172.85 311.4 158h0a45 45 0 0 0-.56-12.64l-4-23.16c-2-14.16-2.64-27.7.1-40.76h0c2.78-13.3 9.07-26.12 21.1-38.54q2.73-2.82 5.86-5.6a123.7 123.7 0 0 1 32.54-20.58q2.2-1 4.44-1.87C403.87 1.48 443.54-1.3 480.6.53a598.88 598.88 0 0 1 102.83 14.29l8 1.87a713.29 713.29 0 0 1 84.74 26.19c81.37 30.6 157.52 74.7 227.94 122.55l3.36 2.3q2.47 1.7 4.94 3.4 5.06 3.48 10.06 7 3.72 2.6 7.42 5.22h0l5.3 3.77 3.3 2.38c18 13 35.7 26.47 52.12 40.92l1.8 1.6c20 17.8 38.1 37.06 52.6 58.56 61.5 91.24 43.27 217.65-42.25 292.82z" class="B C"/><path d="M992.44 14.82v577.2l-1.8 1.43a363.56 363.56 0 0 1-39.52 26.7H236.7a836.8 836.8 0 0 1-104-54.81q-7.08-4.4-14.07-9l-2.2-1.47v-540z" opacity=".03"/><path d="M990.7 16.7v576.77a363.56 363.56 0 0 1-39.52 26.7H236.7a836.8 836.8 0 0 1-104-54.81q-7.08-4.4-14.07-9V16.7z" fill="#fefefe"/><path d="M781.1 233.92c-11.598 0-21 9.402-21 21s9.402 21 21 21 21-9.402 21-21-9.402-21-21-21zm0 38c-9.4 0-17-7.6-17-17a16.64 16.64 0 0 1 .95-5.58c2.83-8.195 11.374-12.947 19.83-11.03a17 17 0 0 1-3.83 33.579zm6.44-7.88l2.64-2.65a1.17 1.17 0 0 0 0-1.66l-4.77-4.78 4.77-4.77a1.17 1.17 0 0 0 0-1.66l-2.64-2.65a1.18 1.18 0 0 0-1.67 0l-4.77 4.77-4.77-4.77a1.17 1.17 0 0 0-1.66 0l-2.65 2.7a1.17 1.17 0 0 0 0 1.66l4.77 4.77-4.77 4.78a1.17 1.17 0 0 0 0 1.66l2.65 2.65a1.17 1.17 0 0 0 1.66 0l4.77-4.78 4.77 4.78a1.2 1.2 0 0 0 1.67-.05z" fill="#ff6584" class="E"/><path d="M739.13 402.9h0a21 21 0 0 0-8.92-13.51h0a21.08 21.08 0 0 0-16-3.13l-.63.15a19.71 19.71 0 0 0-3.31 1.08 21.07 21.07 0 0 0 .05 38.74l.6.24a21 21 0 0 0 28.62-19.62 20.41 20.41 0 0 0-.41-3.95zm-3.88 6.47a.13.13 0 0 1 0 .06v.2a17 17 0 0 1-23.9 12.59 6.45 6.45 0 0 1-.59-.29 16.41 16.41 0 0 1-3.12-2.07 17 17 0 0 1 2.27-27.62 16.16 16.16 0 0 1 3.36-1.52l.63-.2a17 17 0 0 1 21.58 16.32 16.29 16.29 0 0 1-.23 2.53zm-10.33 6.57l2.65-2.65a1.17 1.17 0 0 0 0-1.66l-4.77-4.77 4.77-4.77a1.18 1.18 0 0 0 0-1.67l-2.65-2.64a1.17 1.17 0 0 0-1.66 0l-4.77 4.8-4.8-4.8a1.17 1.17 0 0 0-1.66 0l-2.65 2.64a1.18 1.18 0 0 0 0 1.67l4.78 4.77-4.78 4.77a1.17 1.17 0 0 0 0 1.66l2.65 2.65a1.17 1.17 0 0 0 1.66 0l4.78-4.77 4.77 4.77a1.17 1.17 0 0 0 1.68 0z" class="B C"/><path d="M677.02 95.9l-1.9-1.92a1 1 0 0 0-1.44 0l-12 11.9-5.07-5.1a1 1 0 0 0-1.43 0l-1.93 1.9a1 1 0 0 0 0 1.44l7.7 7.76a1 1 0 0 0 1.44 0L677 97.34a1 1 0 0 0 .01-1.45zm0 0l-1.9-1.92a1 1 0 0 0-1.44 0l-12 11.9-5.07-5.1a1 1 0 0 0-1.43 0l-1.93 1.9a1 1 0 0 0 0 1.44l7.7 7.76a1 1 0 0 0 1.44 0L677 97.34a1 1 0 0 0 .01-1.45zm0 0l-1.9-1.92a1 1 0 0 0-1.44 0l-12 11.9-5.07-5.1a1 1 0 0 0-1.43 0l-1.93 1.9a1 1 0 0 0 0 1.44l7.7 7.76a1 1 0 0 0 1.44 0L677 97.34a1 1 0 0 0 .01-1.45zm0 0l-1.9-1.92a1 1 0 0 0-1.44 0l-12 11.9-5.07-5.1a1 1 0 0 0-1.43 0l-1.93 1.9a1 1 0 0 0 0 1.44l7.7 7.76a1 1 0 0 0 1.44 0L677 97.34a1 1 0 0 0 .01-1.45zm-11.9-15.1c-11.598 0-21 9.402-21 21s9.402 21 21 21 21-9.402 21-21-9.402-21-21-21zm0 38c-9.39 0-17-7.61-17-17s7.61-17 17-17 17 7.61 17 17a16.95 16.95 0 0 1-17 16.98zm11.9-22.87L675.1 94a1 1 0 0 0-1.44 0l-12 11.9-5.07-5.1a1 1 0 0 0-1.43 0l-1.93 1.9a1 1 0 0 0 0 1.44l7.7 7.76a1 1 0 0 0 1.44 0L677 97.36a1 1 0 0 0 .01-1.47zm0 0L675.1 94a1 1 0 0 0-1.44 0l-12 11.9-5.07-5.1a1 1 0 0 0-1.43 0l-1.93 1.9a1 1 0 0 0 0 1.44l7.7 7.76a1 1 0 0 0 1.44 0L677 97.36a1 1 0 0 0 .01-1.47zm0 0L675.1 94a1 1 0 0 0-1.44 0l-12 11.9-5.07-5.1a1 1 0 0 0-1.43 0l-1.93 1.9a1 1 0 0 0 0 1.44l7.7 7.76a1 1 0 0 0 1.44 0L677 97.36a1 1 0 0 0 .01-1.47zm0 0L675.1 94a1 1 0 0 0-1.44 0l-12 11.9-5.07-5.1a1 1 0 0 0-1.43 0l-1.93 1.9a1 1 0 0 0 0 1.44l7.7 7.76a1 1 0 0 0 1.44 0L677 97.36a1 1 0 0 0 .01-1.47zm0 0L675.1 94a1 1 0 0 0-1.44 0l-12 11.9-5.07-5.1a1 1 0 0 0-1.43 0l-1.93 1.9a1 1 0 0 0 0 1.44l7.7 7.76a1 1 0 0 0 1.44 0L677 97.36a1 1 0 0 0 .01-1.47z" class="E G"/><path d="M714.23 249.04l-1.9-1.93a1 1 0 0 0-1.44 0l-12 11.9-5.07-5.1a1 1 0 0 0-1.44 0l-1.93 1.9a1 1 0 0 0 0 1.44l7.7 7.76a1 1 0 0 0 1.44 0l14.64-14.52a1 1 0 0 0 .02-1.44zm0 0l-1.9-1.93a1 1 0 0 0-1.44 0l-12 11.9-5.07-5.1a1 1 0 0 0-1.44 0l-1.93 1.9a1 1 0 0 0 0 1.44l7.7 7.76a1 1 0 0 0 1.44 0l14.64-14.52a1 1 0 0 0 .02-1.44zm0 0l-1.9-1.93a1 1 0 0 0-1.44 0l-12 11.9-5.07-5.1a1 1 0 0 0-1.44 0l-1.93 1.9a1 1 0 0 0 0 1.44l7.7 7.76a1 1 0 0 0 1.44 0l14.64-14.52a1 1 0 0 0 .02-1.44zm0 0l-1.9-1.93a1 1 0 0 0-1.44 0l-12 11.9-5.07-5.1a1 1 0 0 0-1.44 0l-1.93 1.9a1 1 0 0 0 0 1.44l7.7 7.76a1 1 0 0 0 1.44 0l14.64-14.52a1 1 0 0 0 .02-1.44zm-11.9-15.12c-11.598 0-21 9.402-21 21s9.402 21 21 21 21-9.402 21-21-9.402-21-21-21zm0 38c-9.39 0-17-7.61-17-17s7.61-17 17-17 17 7.61 17 17a16.95 16.95 0 0 1-17 16.99zm11.9-22.87l-1.9-1.93a1 1 0 0 0-1.44 0l-12 11.9-5.07-5.1a1 1 0 0 0-1.44 0l-1.93 1.9a1 1 0 0 0 0 1.44l7.7 7.76a1 1 0 0 0 1.44 0l14.64-14.52a1 1 0 0 0 .02-1.45zm0 0l-1.9-1.93a1 1 0 0 0-1.44 0l-12 11.9-5.07-5.1a1 1 0 0 0-1.44 0l-1.93 1.9a1 1 0 0 0 0 1.44l7.7 7.76a1 1 0 0 0 1.44 0l14.64-14.52a1 1 0 0 0 .02-1.45zm0 0l-1.9-1.93a1 1 0 0 0-1.44 0l-12 11.9-5.07-5.1a1 1 0 0 0-1.44 0l-1.93 1.9a1 1 0 0 0 0 1.44l7.7 7.76a1 1 0 0 0 1.44 0l14.64-14.52a1 1 0 0 0 .02-1.45zm0 0l-1.9-1.93a1 1 0 0 0-1.44 0l-12 11.9-5.07-5.1a1 1 0 0 0-1.44 0l-1.93 1.9a1 1 0 0 0 0 1.44l7.7 7.76a1 1 0 0 0 1.44 0l14.64-14.52a1 1 0 0 0 .02-1.45zm0 0l-1.9-1.93a1 1 0 0 0-1.44 0l-12 11.9-5.07-5.1a1 1 0 0 0-1.44 0l-1.93 1.9a1 1 0 0 0 0 1.44l7.7 7.76a1 1 0 0 0 1.44 0l14.64-14.52a1 1 0 0 0 .02-1.45z" class="B C"/><path d="M651.36 402.18l-1.9-1.93a1 1 0 0 0-1.44 0l-12 11.9-5.07-5.1a1 1 0 0 0-1.44 0l-1.93 1.9a1 1 0 0 0 0 1.44l7.7 7.76a1 1 0 0 0 1.44 0l14.64-14.52a1 1 0 0 0 .02-1.44zm0 0l-1.9-1.93a1 1 0 0 0-1.44 0l-12 11.9-5.07-5.1a1 1 0 0 0-1.44 0l-1.93 1.9a1 1 0 0 0 0 1.44l7.7 7.76a1 1 0 0 0 1.44 0l14.64-14.52a1 1 0 0 0 .02-1.44zm0 0l-1.9-1.93a1 1 0 0 0-1.44 0l-12 11.9-5.07-5.1a1 1 0 0 0-1.44 0l-1.93 1.9a1 1 0 0 0 0 1.44l7.7 7.76a1 1 0 0 0 1.44 0l14.64-14.52a1 1 0 0 0 .02-1.44zm0 0l-1.9-1.93a1 1 0 0 0-1.44 0l-12 11.9-5.07-5.1a1 1 0 0 0-1.44 0l-1.93 1.9a1 1 0 0 0 0 1.44l7.7 7.76a1 1 0 0 0 1.44 0l14.64-14.52a1 1 0 0 0 .02-1.44zm-11.9-15.12c-11.598 0-21 9.402-21 21s9.402 21 21 21 21-9.402 21-21-9.402-21-21-21zm0 38c-9.39 0-17-7.61-17-17s7.61-17 17-17 17 7.61 17 17a16.94 16.94 0 0 1-17 16.99zm11.9-22.87l-1.9-1.93a1 1 0 0 0-1.44 0l-12 11.9-5.07-5.1a1 1 0 0 0-1.44 0l-1.93 1.9a1 1 0 0 0 0 1.44l7.7 7.76a1 1 0 0 0 1.44 0l14.64-14.52a1 1 0 0 0 .02-1.45zm0 0l-1.9-1.93a1 1 0 0 0-1.44 0l-12 11.9-5.07-5.1a1 1 0 0 0-1.44 0l-1.93 1.9a1 1 0 0 0 0 1.44l7.7 7.76a1 1 0 0 0 1.44 0l14.64-14.52a1 1 0 0 0 .02-1.45zm0 0l-1.9-1.93a1 1 0 0 0-1.44 0l-12 11.9-5.07-5.1a1 1 0 0 0-1.44 0l-1.93 1.9a1 1 0 0 0 0 1.44l7.7 7.76a1 1 0 0 0 1.44 0l14.64-14.52a1 1 0 0 0 .02-1.45zm0 0l-1.9-1.93a1 1 0 0 0-1.44 0l-12 11.9-5.07-5.1a1 1 0 0 0-1.44 0l-1.93 1.9a1 1 0 0 0 0 1.44l7.7 7.76a1 1 0 0 0 1.44 0l14.64-14.52a1 1 0 0 0 .02-1.45zm0 0l-1.9-1.93a1 1 0 0 0-1.44 0l-12 11.9-5.07-5.1a1 1 0 0 0-1.44 0l-1.93 1.9a1 1 0 0 0 0 1.44l7.7 7.76a1 1 0 0 0 1.44 0l14.64-14.52a1 1 0 0 0 .02-1.45z" class="E G"/><path d="M611.04 555.32l-1.9-1.92a1 1 0 0 0-1.44 0l-12 11.9-5.07-5.1a1 1 0 0 0-1.44 0l-1.92 1.92a1 1 0 0 0 0 1.43l7.7 7.76a1 1 0 0 0 1.44 0l14.63-14.52a1 1 0 0 0 .01-1.45zm0 0l-1.9-1.92a1 1 0 0 0-1.44 0l-12 11.9-5.07-5.1a1 1 0 0 0-1.44 0l-1.92 1.92a1 1 0 0 0 0 1.43l7.7 7.76a1 1 0 0 0 1.44 0l14.63-14.52a1 1 0 0 0 .01-1.45zm0 0l-1.9-1.92a1 1 0 0 0-1.44 0l-12 11.9-5.07-5.1a1 1 0 0 0-1.44 0l-1.92 1.92a1 1 0 0 0 0 1.43l7.7 7.76a1 1 0 0 0 1.44 0l14.63-14.52a1 1 0 0 0 .01-1.45zm0 0l-1.9-1.92a1 1 0 0 0-1.44 0l-12 11.9-5.07-5.1a1 1 0 0 0-1.44 0l-1.92 1.92a1 1 0 0 0 0 1.43l7.7 7.76a1 1 0 0 0 1.44 0l14.63-14.52a1 1 0 0 0 .01-1.45zm-11.9-15.1c-11.598 0-21 9.402-21 21s9.402 21 21 21 21-9.402 21-21-9.402-21-21-21zm0 38c-9.39 0-17-7.61-17-17s7.61-17 17-17 17 7.61 17 17c-.006 9.385-7.615 17-17 17zm11.9-22.88l-1.9-1.92a1 1 0 0 0-1.44 0l-12 11.9-5.07-5.1a1 1 0 0 0-1.44 0l-1.92 1.92a1 1 0 0 0 0 1.43l7.7 7.76a1 1 0 0 0 1.44 0l14.63-14.52a1 1 0 0 0 .01-1.46zm0 0l-1.9-1.92a1 1 0 0 0-1.44 0l-12 11.9-5.07-5.1a1 1 0 0 0-1.44 0l-1.92 1.92a1 1 0 0 0 0 1.43l7.7 7.76a1 1 0 0 0 1.44 0l14.63-14.52a1 1 0 0 0 .01-1.46zm0 0l-1.9-1.92a1 1 0 0 0-1.44 0l-12 11.9-5.07-5.1a1 1 0 0 0-1.44 0l-1.92 1.92a1 1 0 0 0 0 1.43l7.7 7.76a1 1 0 0 0 1.44 0l14.63-14.52a1 1 0 0 0 .01-1.46zm0 0l-1.9-1.92a1 1 0 0 0-1.44 0l-12 11.9-5.07-5.1a1 1 0 0 0-1.44 0l-1.92 1.92a1 1 0 0 0 0 1.43l7.7 7.76a1 1 0 0 0 1.44 0l14.63-14.52a1 1 0 0 0 .01-1.46zm0 0l-1.9-1.92a1 1 0 0 0-1.44 0l-12 11.9-5.07-5.1a1 1 0 0 0-1.44 0l-1.92 1.92a1 1 0 0 0 0 1.43l7.7 7.76a1 1 0 0 0 1.44 0l14.63-14.52a1 1 0 0 0 .01-1.46z" class="B C"/><path d="M853.85 172.46l-1.9-1.9a1 1 0 0 0-1.44 0l-6.24 6.2L842 179l-.2.18-1.17 1.17-2.1 2.07-5.07-5.1a1 1 0 0 0-1.44 0l-1.93 1.9a1 1 0 0 0 0 1.44l7.7 7.76a1.08 1.08 0 0 0 .59.3 1 1 0 0 0 .85-.29l6.06-6 2-2 6.56-6.5a1 1 0 0 0-.02-1.46zm0 0l-1.9-1.9a1 1 0 0 0-1.44 0l-6.24 6.2L842 179l-.2.18-1.17 1.17-2.1 2.07-5.07-5.1a1 1 0 0 0-1.44 0l-1.93 1.9a1 1 0 0 0 0 1.44l7.7 7.76a1.08 1.08 0 0 0 .59.3 1 1 0 0 0 .85-.29l6.06-6 2-2 6.56-6.5a1 1 0 0 0-.02-1.46zm0 0l-1.9-1.9a1 1 0 0 0-1.44 0l-6.24 6.2L842 179l-.2.18-1.17 1.17-2.1 2.07-5.07-5.1a1 1 0 0 0-1.44 0l-1.93 1.9a1 1 0 0 0 0 1.44l7.7 7.76a1.08 1.08 0 0 0 .59.3 1 1 0 0 0 .85-.29l6.06-6 2-2 6.56-6.5a1 1 0 0 0-.02-1.46zm0 0l-1.9-1.9a1 1 0 0 0-1.44 0l-6.24 6.2L842 179l-.2.18-1.17 1.17-2.1 2.07-5.07-5.1a1 1 0 0 0-1.44 0l-1.93 1.9a1 1 0 0 0 0 1.44l7.7 7.76a1.08 1.08 0 0 0 .59.3 1 1 0 0 0 .85-.29l6.06-6 2-2 6.56-6.5a1 1 0 0 0-.02-1.46zm-11.9-15.1c-10.314-.086-19.163 7.33-20.882 17.5s4.202 20.082 13.972 23.4c.22.08.44.16.67.22a21 21 0 0 0 14-.52 19.46 19.46 0 0 0 3-1.49 21 21 0 0 0-10.76-39.1zm7.45 36.27a16.6 16.6 0 0 1-2.18.89 17.11 17.11 0 0 1-9.83.21c-.45-.13-.9-.27-1.33-.43a17 17 0 0 1 5.033-32.927 17 17 0 0 1 8.307 32.257zm4.44-21.16l-1.9-1.9a1 1 0 0 0-1.44 0l-6.24 6.2L842 179l-.2.18-1.17 1.17-2.1 2.07-5.07-5.1a1 1 0 0 0-1.44 0l-1.93 1.9a1 1 0 0 0 0 1.44l7.7 7.76a1.08 1.08 0 0 0 .59.3 1 1 0 0 0 .85-.29l6.06-6 2-2 6.56-6.5a1 1 0 0 0-.02-1.46zm0 0l-1.9-1.9a1 1 0 0 0-1.44 0l-6.24 6.2L842 179l-.2.18-1.17 1.17-2.1 2.07-5.07-5.1a1 1 0 0 0-1.44 0l-1.93 1.9a1 1 0 0 0 0 1.44l7.7 7.76a1.08 1.08 0 0 0 .59.3 1 1 0 0 0 .85-.29l6.06-6 2-2 6.56-6.5a1 1 0 0 0-.02-1.46zm0 0l-1.9-1.9a1 1 0 0 0-1.44 0l-6.24 6.2L842 179l-.2.18-1.17 1.17-2.1 2.07-5.07-5.1a1 1 0 0 0-1.44 0l-1.93 1.9a1 1 0 0 0 0 1.44l7.7 7.76a1.08 1.08 0 0 0 .59.3 1 1 0 0 0 .85-.29l6.06-6 2-2 6.56-6.5a1 1 0 0 0-.02-1.46zm0 0l-1.9-1.9a1 1 0 0 0-1.44 0l-6.24 6.2L842 179l-.2.18-1.17 1.17-2.1 2.07-5.07-5.1a1 1 0 0 0-1.44 0l-1.93 1.9a1 1 0 0 0 0 1.44l7.7 7.76a1.08 1.08 0 0 0 .59.3 1 1 0 0 0 .85-.29l6.06-6 2-2 6.56-6.5a1 1 0 0 0-.02-1.46zm0 0l-1.9-1.9a1 1 0 0 0-1.44 0l-6.24 6.2L842 179l-.2.18-1.17 1.17-2.1 2.07-5.07-5.1a1 1 0 0 0-1.44 0l-1.93 1.9a1 1 0 0 0 0 1.44l7.7 7.76a1.08 1.08 0 0 0 .59.3 1 1 0 0 0 .85-.29l6.06-6 2-2 6.56-6.5a1 1 0 0 0-.02-1.46z" class="E G"/><g class="C"><rect x="167.58" y="81.43" width="439.1" height="40.76" rx="20.38" class="F"/><rect x="167.58" y="158" width="616.71" height="40.76" rx="20.38" class="F"/><rect x="167.58" y="234.57" width="476.52" height="40.76" rx="20.38" class="B"/><rect x="167.58" y="311.14" width="616.71" height="40.76" rx="20.38" class="B"/><rect x="167.58" y="387.71" width="415.38" height="40.76" rx="20.38" class="F"/><rect x="167.58" y="464.29" width="616.71" height="40.76" rx="20.38" class="B"/><rect x="167.58" y="540.86" width="373.1" height="40.76" rx="20.38" class="B"/><path d="M744.38 80.78c-11.598 0-21 9.402-21 21s9.402 21 21 21 21-9.402 21-21-9.402-21-21-21zm0 38c-9.4 0-17-7.6-17-17s7.6-17 17-17 17 7.6 17 17a16.95 16.95 0 0 1-17 16.98zm6.44-7.88l2.65-2.64a1.18 1.18 0 0 0 0-1.67l-4.78-4.77 4.77-4.77a1.18 1.18 0 0 0 0-1.67l-2.65-2.64a1.17 1.17 0 0 0-1.66 0l-4.77 4.77-4.77-4.77a1.18 1.18 0 0 0-1.67 0l-2.64 2.64a1.17 1.17 0 0 0 0 1.67l4.77 4.77-4.76 4.76a1.17 1.17 0 0 0 0 1.67l2.64 2.64a1.18 1.18 0 0 0 1.67 0l4.77-4.77 4.77 4.77a1.17 1.17 0 0 0 1.66.01zm169.88 46.45c-11.598 0-21 9.402-21 21s9.402 21 21 21 21-9.402 21-21a20.94 20.94 0 0 0-21-21zm0 38a17 17 0 1 1 14.54-8.24 17 17 0 0 1-14.54 8.23zm6.4-7.9l2.65-2.64a1.18 1.18 0 0 0 0-1.67l-4.78-4.77 4.78-4.77a1.17 1.17 0 0 0 0-1.66l-2.65-2.65a1.17 1.17 0 0 0-1.66 0l-4.76 4.77-4.77-4.77a1.17 1.17 0 0 0-1.66 0l-2.65 2.65a1.17 1.17 0 0 0 0 1.66l4.77 4.77-4.77 4.77a1.18 1.18 0 0 0 0 1.67l2.65 2.64a1.15 1.15 0 0 0 1.66 0l4.77-4.77 4.78 4.77a1.17 1.17 0 0 0 1.64 0z" class="B"/></g><path d="M677.32 540.2c-11.598 0-21 9.402-21 21s9.402 21 21 21 21-9.402 21-21-9.402-21-21-21zm0 38c-9.4 0-17-7.6-17-17s7.6-17 17-17 17 7.6 17 17a16.95 16.95 0 0 1-17 16.99zm6.44-7.88l2.64-2.64a1.18 1.18 0 0 0 0-1.67l-4.77-4.77 4.77-4.77a1.17 1.17 0 0 0 0-1.66l-2.64-2.65a1.18 1.18 0 0 0-1.67 0l-4.77 4.77-4.77-4.77a1.17 1.17 0 0 0-1.66 0l-2.65 2.65a1.17 1.17 0 0 0 0 1.66l4.77 4.77-4.77 4.77a1.18 1.18 0 0 0 0 1.67l2.65 2.64a1.15 1.15 0 0 0 1.66 0l4.77-4.77 4.77 4.77a1.18 1.18 0 0 0 1.67 0z" fill="#ff6584" class="E"/><ellipse cx="766.54" cy="809.27" rx="118.88" ry="5.8" class="B C"/><path d="M928.7 438s-28.1-51.38-23.36-59.74 8.22-20.46 8.22-20.46 10.38-7.1 10.38-10 8.22-9.6 12.55-12.53 2.16-16.7 0-18.38-5.6-7.52-5.6-7.52 3-8.35 0-10.86.44-5 0-7.52 0-11.7 0-11.7c-3.5-4.88-7.4-7.16-11.06-8l-.32-1.32-1.85-7.8s9-17.25-5.6-26.28a24.4 24.4 0 0 0-3.23-1.7c0 0 0-.42-.08-1.13-.2-2.58-.8-9.05-2.12-13.2-.76-2.42-1.75-4.05-3-3.68a2 2 0 0 0-.82.47 9.12 9.12 0 0 0-1.55 1.83h0a.41.41 0 0 1-.07.11h0a31.36 31.36 0 0 0-3.44 9.55 55.16 55.16 0 0 0-1 6h0a33 33 0 0 0-1.67 3.71c-1.77 4.6-3.84 12.54-.07 18.42l10.93 17.34-.33.2.05.77.3 4.2 2.47 36.37a15.45 15.45 0 0 0-2.22-.47 20.17 20.17 0 0 0-3.23-.21c-2.1-8.3-7.9-16-8.95-24.66a22.87 22.87 0 0 1-.17-2.61c.1-5.45 1.45-10.92 1.34-16.36 0-1 0-2-.1-3h0c0-.27 0-.55-.08-.83a24.59 24.59 0 0 0-13.37-18.63c-2.5-1.25-5.23-2.08-7.67-3.45-5.64-3.16-9.25-8.86-14.37-12.77-3.8-2.9-9.5-4.47-13.75-3a63.49 63.49 0 0 0-6.69 1.38h0a60.35 60.35 0 0 0-15.31 6.36c-.65.4-1.3.8-1.92 1.25a8.46 8.46 0 0 0-3.09 3.61 9.46 9.46 0 0 0-.48 3.89c0 .95 0 1.92.06 2.87-.28 16-17.52 28.38-18.94 44 0 .37-.06.74-.08 1.1v2.96c.25 6.85 3.8 13.23 4.46 20.05a22.19 22.19 0 0 1 .1 1.82 30.24 30.24 0 0 1-1.77 9.18 26.87 26.87 0 0 0-6.21 2.52c-5.24 3.37-14.7 9.2-18.15 20.32a29.76 29.76 0 0 0-1.31 8.92 186.26 186.26 0 0 1-2.92 31.85 59.53 59.53 0 0 1-1.84 7.83 1.84 1.84 0 0 0-.06.77l-2.97 38.5a30.6 30.6 0 0 0 .37 1.1 31.8 31.8 0 0 1 .82 3.12 16.78 16.78 0 0 1 .27 7 4.82 4.82 0 0 1-1.46 2.57 1.08 1.08 0 0 0-.17.19c-.6.83-1.12 3.3-1.58 6.88-.18 1.4-.35 3-.52 4.66-1 10.65-1.62 26.6-2 39.77l-.5 23.27a26.54 26.54 0 0 0 5.37 2.66l-.43 1.1a52.53 52.53 0 0 0-3.26 13.74c-.84 9.83 1.9 20.75 15.62 26.37a22.06 22.06 0 0 0 2.69.92c3 .8 5.2.58 6.84-.42 0 .6.07 1.16.1 1.73l.32 6.54c.43 11.7 3.33 32.16 3.33 32.16s1 8.36.13 10.86 0 12.53 0 12.53 3 5 0 7.52-3.9 15-3 16.7a.56.56 0 0 1 0 .19c.66 4.15-3.07 65.8-3.07 65.8s-3.53 9.44-6.34 19.24c-2.74 9.54-4.8 19.42-2.26 21.27 1.26.92 4.2 1.6 7.9 2.14 0 .4-.06.82-.1 1.24-.36 4.4-.93 9.16-1.75 10.36-1.2 1.7-2.44 14.88-3 22l-.06.8a73.7 73.7 0 0 0-3.22 9.34s-9.57 24-6.33 30.23a5.11 5.11 0 0 0 1.19 1.47h0a2.7 2.7 0 0 0 .31.28c4.6 3.7 16.16 4.46 20.35 4.63l-.16 5.94v.22h5.45v-.15c0-.75.12-4.2.3-8.8 0-.82.06-1.68.1-2.56 0-.7.07-1.4.1-2.1a37 37 0 0 0 2.37-13.34 58.58 58.58 0 0 1 2.1-15.48 43 43 0 0 1 2.77-7.55s1.7-9-.67-15.37a11.1 11.1 0 0 0-2-3.46v-2a57.69 57.69 0 0 1 1.28-12.82 1.42 1.42 0 0 1 0-.2c.08-.35.17-.68.26-1l.06-.22 1.77.06 9.42.15s4.33-22.14 3.9-31.74v-1.3c-.15-9.54 2.62-22.5 2.62-22.5l3.46-33.83s-1.73-5.86 0-10c1.07-2.58 3.28-7.37 4.82-10.67l1.53-3.25.14-.28a6.47 6.47 0 0 1-1.54-.77h0c-1.4-.94-2.67-2.78 1.55-5.5 6.5-4.18 4.33-14.62 4.33-14.62s-1.9-3.76.34-7.1 0-15.87 0-15.87a52.47 52.47 0 0 0 4.38-10.49c1.6-5 5.68-29.45 7.6-41.24l1-6.37.06.6.06.66.6 6.3 1 10.53s2 27.68.75 38.53v.2a12.82 12.82 0 0 1-.73 3.29c-2.3 5.2-1.88 25.86-1.76 30.43v.92c0 .25-1.63 4.08-1.22 7.06h0a4.53 4.53 0 0 0 .79 2.1 5.32 5.32 0 0 1 .77 3.25v.1a11.81 11.81 0 0 1-.12 1.44 27.46 27.46 0 0 1-1.52 5.66s-2.32 6.1-1.44 9.3a2.94 2.94 0 0 0 .57 1.13 2.67 2.67 0 0 1 .33 1.2.43.43 0 0 0 0 .11c.8 6.73-1.28 36.44-2.52 52.7l-.86 10.74-3.37 35.54.34.24c.4.28 1.12.76 2.1 1.34v.08l-.15 1.07c-.5 3.42-1.15 7.4-1.87 10.44l-.17.66a9.57 9.57 0 0 0-3.67 1.47c-7.28 12.93-4.06 23.18 0 26.16 1.15.84 1.93 3.2 2.45 6.1l1 12.9v1.48a3.84 3.84 0 0 0 .19 1.18l.3 3.9.42 5.44h3.32v-6.58h.18c5.24.18 13.7.4 17.37.1h.1c.4 0 .72-.07 1-.1a2.51 2.51 0 0 0 .58-.16c1.95-.94 6.8-14.72 2.43-17.85s-5.35-12-5.35-12c-.38-1.16-.76-2.26-1.15-3.3v-.68c-.12-4.3-.07-8.94.52-11.46.66-2.77 1-8.6 1.14-13.7v-1.27a17.07 17.07 0 0 0 2.23-.73l.16-.07a15.71 15.71 0 0 0 3.73-2.21l12.12-54.3 8.6-42.1s-2.6-12.53 0-14.6c1-.76 1.2-4 1.15-7.75-.1-6.56-1.15-14.8-1.15-14.8s3.46-5.43 5.2-8.77 0-12.1 0-12.1l3.45-20S904.48 580 914 560c7-14.75 2.54-54.58-2-75.78l-.36-1.6v-.08l7.56-3.68 1.06-.5c3.55-1.67 7.3-3.4 10.68-4.82l.22-.1a74.58 74.58 0 0 1 7.43-2.78 12.47 12.47 0 0 1 2.28-.47c6-.43-12.17-32.2-12.17-32.2zm-135.3 68h1.8c-.2.4-.4.8-.6 1.2l-.35.7c-.66 1.37-1.27 2.77-1.77 4.14.2-1.48.45-3.1.73-4.8l.2-1.23zm-4.86 26a.74.74 0 0 0 0-.14l-.15-.47c-.1-.32-.2-.64-.3-.95q.93-.3 1.9-.63l.13-.05v.33c0 .47-.1.94-.17 1.4h0a1 1 0 0 1 0 .18c0 .38-.1.74-.13 1.1l-.26 2.1-.58-1.86c-.2-.3-.3-.63-.42-1z" transform="translate(-59.31 -39.43)" fill="url(#A)"/><path d="M859.04 238.3l-10.8 3.83-3.92-6.5-10.23-16.8c-5.42-8.75 1.67-22.07 1.67-22.07s1.24-13.32 5.82-17.48 5.83 17.48 5.83 17.48c18.3 8.33 8.5 27.9 8.5 27.9l1.78 7.77z" class="H"/><path d="M859.04 238.3l-10.8 3.83-3.92-6.5v-.57s6.2-4.25 13.4-2.65z" class="B"/><path d="M841.58 282.1l5.4-4.54-2.7-41.22s13.95-9.57 24.36 5.42c0 0-.42 9.16 0 11.66s-2.9 5 0 7.5 0 10.82 0 10.82 3.3 5.83 5.37 7.5 4.17 15.4 0 18.32-12.07 9.57-12.07 12.5-10 10-10 10l-8.75-11.66z" class="D"/><path d="M724.58 532.34c-20.18-8.56-15.7-29.47-11.9-40a55.48 55.48 0 0 1 2.67-6.24l11.34-6.85s2.3 5.9 4.78 13.8c5.7 18.3 12.3 47.43-6.9 39.3zm27.74 190.8a33.74 33.74 0 0 0-3 8.41 60.89 60.89 0 0 0-1.25 14.34l.36 5.5-22.48 15.46.35-4.47c.58-7.08 1.8-20.22 2.93-21.92.8-1.2 1.34-5.93 1.7-10.32s.5-8.26.5-8.26 27-10.15 20.9 1.25zm53.08 11.1l-.16 9.3c-.16 5-.46 10.9-1.1 13.65-.58 2.5-.62 7.15-.5 11.42a225.49 225.49 0 0 0 .5 9.5s-23-21.7-20.6-23.42c.63-.46 1.25-2.3 1.82-4.77.7-3 1.33-7 1.8-10.4.56-4 .9-7.3.9-7.3z" class="H"/><path d="M752.32 723.13a33.74 33.74 0 0 0-3 8.41 180.87 180.87 0 0 1-18.4-1.4l.5-8.26s27-10.15 20.9 1.25zm53.08 11.1l-.16 9.3c-7.16 1.83-14.52-1.83-18.08-4 .56-4 .9-7.3.9-7.3z" class="B"/><path d="M852.4 521.57c-9.16 20-12.9 43.7-12.9 43.7l-3.32 20s1.66 8.74 0 12.07-5 8.74-5 8.74 2.5 20.4 0 22.48 0 14.58 0 14.58l-8.33 42.05-11.66 54.12c-11.24 9.16-26.2-2.5-26.2-2.5l3.3-35.38s5-62 2.92-64.54.83-10.4.83-10.4 2.92-7.5.84-10.42.4-9.16.4-9.16-.83-25.4 1.67-31.22 0-41.9 0-41.9l-1-11.23-.57-6.22-.06-.6-1 6.36c-1.84 11.75-5.76 36.1-7.3 41.1a53.53 53.53 0 0 1-4.32 10.36c0 0 2.16 12.5 0 15.82s-.33 7.08-.33 7.08 2.08 10.4-4.17 14.57 0 6.24 0 6.24l-6.24 14.16c-1.66 4.16 0 10 0 10l-3.26 33.7s-2.92 14.15-2.5 23.73-3.8 31.7-3.8 31.7-32.06 0-37-3.75 8.3-40.43 8.3-40.43l2.9-65.8c-.84-1.67 0-14.15 2.92-16.65s0-7.5 0-7.5-.83-10 0-12.5-.13-10.83-.13-10.83-2.8-20.4-3.2-32.06-2.5-37.9-2.5-37.9 2.18-16.22 2.5-23.94c.12-2.84 1.4-6.38 2.95-9.72a87.37 87.37 0 0 1 6.2-10.89c0 0 98.67-29.14 102.84-26.23 1.1.77 2.7 6 4.28 13.58 4.37 21.13 8.67 60.82 1.93 75.58z" fill="#605d82"/><circle cx="791.61" cy="238.31" r="28.73" class="H"/><path d="M850.44 446l-5.53 2.87s-46.63 22.07-59.93 20.82c-10.26-1-36.45-.44-47.86-.15a87.37 87.37 0 0 1 6.2-10.89c0 0 98.67-29.14 102.84-26.23 1.1.77 2.7 5.98 4.28 13.58z" class="B"/><path d="M771.63 284.2s-26.65 4.17-32.9 8.33S720 304.57 720 321.67s-2.9 34.55-4.58 39.55 26.27 45.35 26.27 45.35l-10 61.2s40-1.24 53.32 0 59.93-20.8 59.93-20.8 27.48-14.58 33.3-15-11.66-32.06-11.66-32.06-27.06-51.2-22.48-59.54 7.9-20.4 7.9-20.4l-5-42.47s-7.5-2.5-13.74 2.08-27.48 2.1-27.48 2.1z" class="D"/><path d="M726.46 358.3l-10.4 2.92-2.92 39.14s3.75 10.4 0 13.74-4.58 74.52-4.58 74.52 12.08 8.75 26.23 2.08c0 0-2.08-7.9 4.17-36.64s6.24-43.3 6.24-43.3 0-35.8 2.92-41.63 0-20.4 0-20.4-5.83-7.9-5.42-10.83-16.23 20.4-16.23 20.4z" class="B"/><path d="M731.45 493.05a26.52 26.52 0 0 1-18.77-.69 55.48 55.48 0 0 1 2.67-6.24l11.34-6.87s2.3 5.9 4.76 13.8z" class="B"/><path d="M725.83 358.3l-10.4 2.92-2.9 39.14s3.75 10.4 0 13.74-4.58 74.52-4.58 74.52 12.07 8.75 26.23 2.08c0 0-2.08-7.9 4.16-36.64s6.25-43.3 6.25-43.3 0-35.8 2.9-41.63 0-20.4 0-20.4-5.83-7.9-5.4-10.83-16.24 20.4-16.24 20.4z" class="D"/><path d="M832.42 364.57s-5.4 46.63-21.24 55.37c0-.02 35.4-10 21.24-55.37zm-79.52 4.13s19.56 9.58 15 16.24-15-16.24-15-16.24zm0 19.17s12.5 12.9 10 17.48-10-17.48-10-17.48zm100.8-107s4.9 8.33 5.37 13.74-5.37-13.74-5.37-13.74zm0-11.24s2.46-2.08 8.74 0-8.74 0-8.74 0zm-24.1 243.36a57.9 57.9 0 0 1-30.45-3.9l-5.25 13.43-.57-6.22c.85-5.2 2.52-10.8 5.82-12.2 0 0 11.53 9.2 30.45 8.9zm-85.4 17.48s25.6 5.3 32.8 4.38zm2.66 6.72s10.93-.47 16.4 1.72zm1.24 4.52a99.44 99.44 0 0 0 15.14 2zm-.62 57.3c.47-.32 21.86-5.3 24.52-1.72zm0 6.57s18.58-2.18 19.05 0-19.05 0-19.05 0zm0 5.93s19.83-4.06 22.17-3.13-22.17 3.13-22.17 3.13zm.94 139.9l-22.48 15.46.35-4.47c5-12.3 11.5-18.8 11.5-18.8 5.07-1.3 8.27-.1 10.26 2.3.08 3.33.36 5.5.36 5.5z" class="B"/><path d="M750.6 765.3a55.74 55.74 0 0 0-4.69 22.95 35.7 35.7 0 0 1-4.76 18.51 17.52 17.52 0 0 1-1.58 2.25c0 0-15.62-.12-21.1-4.66a5.48 5.48 0 0 1-1.45-1.74c-3.13-6.24 6.1-30.13 6.1-30.13 4.84-18.43 14.67-28.26 14.67-28.26 17.5-4.53 12.8 21.08 12.8 21.08z" class="D"/><path d="M741.16 806.75a17.52 17.52 0 0 1-1.58 2.25c0 0-15.62-.12-21.1-4.66 2.7-8.9 11.28-35.82 15.3-31.25 3.78 4.3 6.4 25 7.38 33.66z" class="B"/><path d="M739 774.77l-1.1 40.33h5.24s.85-35.38 3.2-40.33-7.34 0-7.34 0z" class="D"/><path d="M804.16 778.1s-23-21.7-20.6-23.42c.63-.46 1.25-2.3 1.82-4.77 4.4-.78 12 1.07 18.28 18.7.15 4.98.5 9.5.5 9.5z" class="B"/><path d="M807.6 802.3a3.09 3.09 0 0 1-.55.15c-2.7.48-12.65.2-18.22 0a4 4 0 0 1-3.81-3.93c0-1.5 0-3.33-.12-5.28-.26-6.16-1-13.5-3.2-15.14-3.9-3-7-13.2 0-26.08 0 0 13.42-10.24 23.1 20.56 0 0 .94 8.8 5.16 11.92s-.47 16.86-2.35 17.8z" class="D"/><path d="M807.04 802.44c-2.7.48-12.65.2-18.22 0a4 4 0 0 1-3.81-3.93c0-1.5 0-3.33-.12-5.28 1.7-7.47 4.12-15.14 7.25-16.9 0 0 9.47-1.07 14.9 26.1z" class="B"/><path d="M783.38 775.43l2.5 33.57h3.2v-36.43l-5.7 2.86z" class="D"/><path d="M791.2 192.57a57.42 57.42 0 0 0-25.62 8.23c-2 1.2-4 2.67-4.83 4.84-.72 1.88-.42 4-.4 6 .27 17.23-18.93 30.26-18.33 47.47.24 6.83 3.67 13.2 4.3 20 1.05 11.35-5.67 21.8-12.1 31.22a25.9 25.9 0 0 0 18.25-6.05 138.38 138.38 0 0 1 2.58 69.78h9.2a7.15 7.15 0 0 1 2.69.34 6.61 6.61 0 0 1 2.13 1.59c8.6 8.57 14.38 21.24 11.1 32.94l19.6-7.35c4.7-1.76 9.45-3.55 13.53-6.46s7.5-7.1 8.36-12c.53-3 .36-6.58 2.83-8.32a15 15 0 0 1 3.86-1.44c5.38-1.9 7.76-8.1 8.86-13.7a79 79 0 0 0 1.25-20.87c-.87-11.7-4.33-23.58-1.48-35 1.6-6.4 5.2-12.4 5.48-19 .47-10.92-8.06-20.3-9.33-31.16-.9-7.57 1.84-15.2.95-22.77a24.46 24.46 0 0 0-12.87-18.57c-2.4-1.24-5-2.08-7.38-3.44-5.43-3.15-8.9-8.83-13.83-12.73s-13.14-5.37-16.85-.3z" class="B"/><path d="M791.2 191.3a57.42 57.42 0 0 0-25.62 8.28c-2 1.2-4 2.67-4.83 4.85-.72 1.88-.42 4-.4 6 .27 17.22-18.93 30.25-18.33 47.46.24 6.83 3.67 13.2 4.3 20 1.05 11.36-5.67 21.8-12.1 31.22a25.9 25.9 0 0 0 18.25-6.05 138.38 138.38 0 0 1 2.58 69.78h9.2a7.15 7.15 0 0 1 2.69.34 6.61 6.61 0 0 1 2.13 1.59c8.6 8.57 14.38 21.24 11.1 32.94l19.6-7.35c4.7-1.76 9.45-3.55 13.53-6.46s7.5-7.1 8.36-12c.53-3 .36-6.58 2.83-8.32a14.66 14.66 0 0 1 3.86-1.43c5.38-1.9 7.76-8.12 8.86-13.72a79 79 0 0 0 1.25-20.87c-.87-11.7-4.33-23.58-1.48-35 1.6-6.4 5.2-12.4 5.48-19 .47-10.92-8.06-20.3-9.33-31.16-.9-7.57 1.84-15.2.95-22.77a24.46 24.46 0 0 0-12.87-18.57c-2.4-1.24-5-2.07-7.38-3.44-5.43-3.15-8.9-8.83-13.83-12.73s-13.14-5.37-16.85-.3z" fill="#4a4347"/><g class="B"><path d="M760.34 206.2a11.46 11.46 0 0 0-.06 1.17l.06-1.17zm72.72 40.04c.36-5.3 1.54-10.62 1.1-15.9-.37 5.3-1.55 10.6-1.1 15.9zm-86.73 26.33c-.58-6.2-3.47-12-4.15-18.2a22.86 22.86 0 0 0-.15 3.42c.24 6.76 3.6 13.06 4.27 19.8a27 27 0 0 0 .03-5.01zm90.65 24.65a42.85 42.85 0 0 0-1 12.42 38.46 38.46 0 0 1 1-7.21c1.6-6.4 5.2-12.4 5.48-19a20.61 20.61 0 0 0-.16-3.52c-.74 5.95-3.85 11.44-5.32 17.3zm-84.5.54a25.88 25.88 0 0 1-14.76 6 207.19 207.19 0 0 1-3.49 5.24 25.9 25.9 0 0 0 18.25-6.05 138 138 0 0 1 5.82 37.38 138.23 138.23 0 0 0-5.82-42.57zm84.73 55.28c-1.1 5.6-3.48 11.82-8.86 13.72a15.4 15.4 0 0 0-3.86 1.43c-2.47 1.75-2.3 5.35-2.82 8.32-.87 4.94-4.28 9.14-8.37 12.05s-8.84 4.7-13.53 6.46l-18.7 7a25.29 25.29 0 0 1-.9 5.56l19.6-7.35c4.7-1.76 9.45-3.55 13.53-6.46s7.5-7.1 8.37-12c.52-3 .35-6.58 2.82-8.32a14.66 14.66 0 0 1 3.86-1.43c5.38-1.9 7.76-8.12 8.86-13.72a78.42 78.42 0 0 0 1.41-17.7 78.05 78.05 0 0 1-1.41 12.44zm-68.12 16.4a6.61 6.61 0 0 0-2.13-1.59 7.15 7.15 0 0 0-2.69-.34h-8.17l-1 5.22h9.2a7.15 7.15 0 0 1 2.69.34 6.61 6.61 0 0 1 2.13 1.59c6.3 6.27 11.08 14.74 11.9 23.42 1-10.43-4.32-21.12-11.93-28.64z"/><path d="M723.4 403.48s7.44-3.12 9.1 0-9.1 0-9.1 0zm2.57 5.35s7.44-3.13 9.1 0-9.1 0-9.1 0z"/></g><path d="M1002.85 747.48s5.5 7.2-2.53 18-14.65 20-12 26.77c0 0 12.12-20.15 22-20.43s3.37-12.25-7.47-24.34z" class="C"/><path d="M1002.85 747.48a8.83 8.83 0 0 1 1.12 2.26c9.62 11.3 14.75 21.85 5.5 22.1-8.6.25-18.94 15.65-21.42 19.54a9.24 9.24 0 0 0 .29.89c0 0 12.12-20.15 22-20.43s3.35-12.28-7.5-24.37z" class="B"/><g fill="#ffd037"><path d="M1013.06 756.64c0 2.53-.28 4.58-.63 4.58s-.63-2-.63-4.58.35-1.34.7-1.34.56-1.2.56 1.34z"/><path d="M1016.57 759.66c-2.22 1.2-4.16 1.94-4.32 1.63s1.5-1.54 3.7-2.75 1.35-.32 1.5 0 1.32-.1-.9 1.12z"/></g><path d="M973.83 747.48s-5.5 7.2 2.54 18 14.65 20 12 26.77c0 0-12.1-20.15-22-20.43s-3.38-12.25 7.46-24.34z" class="C"/><path d="M973.83 747.48a9.25 9.25 0 0 0-1.12 2.26c-9.62 11.3-14.74 21.85-5.5 22.1 8.62.25 19 15.65 21.43 19.54a7.16 7.16 0 0 1-.3.89c0 0-12.1-20.15-22-20.43s-3.35-12.28 7.5-24.37z" class="B"/><g fill="#ffd037"><path d="M963.62 756.64c0 2.53.3 4.58.64 4.58s.63-2 .63-4.58-.35-1.34-.7-1.34-.57-1.2-.57 1.34z"/><path d="M960.12 759.66c2.22 1.2 4.15 1.94 4.32 1.63s-1.5-1.54-3.72-2.75-1.34-.32-1.5 0-1.3-.1.9 1.12z"/></g><path d="M965.37 791.34s15.36-.48 20-3.77 23.63-7.23 24.77-2 23.1 26.3 5.75 26.43-40.3-2.7-44.92-5.5-5.6-15.15-5.6-15.15z" fill="#a8a8a8"/><path d="M1016.2 810.2c-17.34.14-40.3-2.7-44.92-5.5-3.5-2.15-4.92-9.84-5.4-13.38h-.5s1 12.38 5.6 15.2 27.58 5.65 44.92 5.5c5 0 6.73-1.82 6.64-4.46-.7 1.62-2.6 2.6-6.33 2.64z" class="F"/><path d="M118.64 16.7h872v26.2h-872z" class="B C"/><g fill="#fefefe"><circle cx="136.14" cy="29.79" r="5.55"/><circle cx="153.14" cy="29.79" r="5.55"/><circle cx="170.14" cy="29.79" r="5.55"/></g><g class="C"><path d="M459.13 778.8s-42.28-2.55-37.3 27.07c0 0-1 5.24 3.76 7.62 0 0 .08-2.2 4.34-1.45a19.85 19.85 0 0 0 4.59.22 9.62 9.62 0 0 0 5.62-2.32h0s11.88-4.9 16.5-24.33c0 0 3.42-4.24 3.28-5.33l-7.13 3s2.44 5.14.52 9.42c0 0-.23-9.24-1.6-9-.28.05-3.7 1.78-3.7 1.78s4.2 9 1 15.5c0 0 1.2-11.05-2.34-14.84l-5 2.93s4.9 9.27 1.58 16.82c0 0 .85-11.6-2.64-16.1l-4.55 3.55s4.6 9.13 1.8 15.4c0 0-.37-13.5-2.78-14.5 0 0-4 3.5-4.6 5 0 0 3.15 6.62 1.2 10.12 0 0-1.2-9-2.2-9 0 0-4 5.95-4.38 10 0 0 .17-6.07 3.42-10.6a11.85 11.85 0 0 0-6.07 3.14s.6-4.2 7.05-4.58c0 0 3.28-4.5 4.15-4.8 0 0-6.4-.53-10.28 1.2 0 0 3.42-4 11.46-2.17l4.5-3.67s-8.43-1.15-12 .12c0 0 4.1-3.5 13.2-.95l4.9-2.93s-7.18-1.54-11.46-1c0 0 4.5-2.43 12.9.2l3.5-1.57-6.8-1.2c-1.54-.2-1.62-.6-1.62-.6a18.22 18.22 0 0 1 9.88 1.1c0 0 7.44-2.77 7.3-3.24z"/><ellipse cx="430" cy="816.08" rx="29.92" ry="5.06" class="B"/><path d="M385.06 780.4s-23.84-1.44-21 15.26a4.07 4.07 0 0 0 2.12 4.29s0-1.23 2.44-.8a11.15 11.15 0 0 0 2.59.12 5.34 5.34 0 0 0 3.17-1.31h0s6.7-2.76 9.3-13.7c0 0 1.93-2.4 1.85-3l-4 1.72s1.38 2.9.3 5.3c0 0-.13-5.2-.9-5.08-.15 0-2.1 1-2.1 1s2.37 5.06.58 8.73c0 0 .68-6.22-1.32-8.36l-2.83 1.65s2.77 5.22.9 9.48c0 0 .48-6.53-1.48-9.07l-2.57 2s2.6 5.14 1 8.68c0 0-.2-7.6-1.56-8.2a15.42 15.42 0 0 0-2.59 2.8s1.78 3.73.67 5.7c0 0-.67-5.06-1.23-5.1 0 0-2.23 3.36-2.47 5.66a12.24 12.24 0 0 1 1.93-6 6.72 6.72 0 0 0-3.42 1.77c0 0 .34-2.37 4-2.58 0 0 1.85-2.54 2.35-2.7 0 0-3.6-.3-5.8.67 0 0 1.92-2.24 6.46-1.22l2.53-2.07s-4.75-.65-6.77.07c0 0 2.32-2 7.45-.54l2.76-1.65a25.18 25.18 0 0 0-6.46-.56c0 0 2.54-1.37 7.27.12l2-.9s-3-.58-3.84-.67-.9-.33-.9-.33a10.28 10.28 0 0 1 5.57.62c0 0 4.1-1.56 4.02-1.82z"/><ellipse cx="368.63" cy="801.4" rx="16.87" ry="2.85" class="B"/><path d="M430.43 744.98s-28.78-1.74-25.38 18.43a4.91 4.91 0 0 0 2.55 5.18c0 0 0-1.5 2.95-1a13.14 13.14 0 0 0 3.13.15 6.46 6.46 0 0 0 3.82-1.58h0s8.1-3.34 11.24-16.56c0 0 2.33-2.88 2.23-3.63l-4.85 2.08s1.66 3.5.35 6.4c0 0-.16-6.28-1.1-6.14-.2 0-2.52 1.22-2.52 1.22s2.85 6.1.7 10.54c0 0 .82-7.52-1.6-10.1l-3.42 2s3.33 6.3 1.07 11.45c0 0 .58-7.9-1.8-11l-3.1 2.42s3.14 6.2 1.22 10.48c0 0-.25-9.2-1.9-9.88 0 0-2.7 2.4-3.12 3.37 0 0 2.14 4.5.8 6.9 0 0-.82-6.12-1.5-6.15 0 0-2.7 4.06-3 6.83a14.77 14.77 0 0 1 2.33-7.22 8.1 8.1 0 0 0-4.13 2.15c0 0 .42-2.87 4.8-3.12 0 0 2.23-3.08 2.83-3.26 0 0-4.36-.37-7 .8 0 0 2.32-2.7 7.8-1.47l3.06-2.5s-5.73-.78-8.17.08c0 0 2.8-2.4 9-.64l3.33-2s-4.9-1-7.8-.67c0 0 3.08-1.66 8.78.14l2.38-1.07s-3.58-.7-4.63-.8-1.1-.4-1.1-.4a12.36 12.36 0 0 1 6.73.74s5.07-1.85 4.98-2.16z"/><ellipse cx="410.61" cy="770.34" rx="20.37" ry="3.44" class="B"/><ellipse cx="620.55" cy="771.76" rx="29.92" ry="5.06" class="B"/></g><path d="M600.45 748.25s17.07-.52 22.22-4.18 26.25-8 27.53-2.17 25.65 29.22 6.38 29.38-44.78-3-49.9-6.13-6.22-16.9-6.22-16.9z" fill="#a8a8a8"/><path d="M656.92 769.23c-19.27.16-44.77-3-49.9-6.13-3.9-2.38-5.46-10.92-6-14.87h-.57s1.1 13.77 6.22 16.9 30.64 6.28 49.9 6.13c5.56-.05 7.48-2 7.38-5-.77 1.83-2.9 2.94-7.03 2.97z" class="F"/></svg>